<mxfile host="app.diagrams.net" modified="2021-12-03T03:27:02.755Z" agent="5.0 (Windows NT 10.0; Win64; x64) AppleWebKit/537.36 (KHTML, like Gecko) Chrome/96.0.4664.45 Safari/537.36" etag="sjr8whTJiUNdwnuj_ztb" version="15.8.6" type="github">
  <diagram id="j0ziaLHF8pWoc9vtY9ym" name="Page-1">
    <mxGraphModel dx="1550" dy="835" grid="1" gridSize="10" guides="1" tooltips="1" connect="1" arrows="1" fold="1" page="1" pageScale="1" pageWidth="827" pageHeight="1169" math="0" shadow="0">
      <root>
        <mxCell id="0" />
        <mxCell id="1" parent="0" />
        <mxCell id="5luBb_2tMEL0sUNSLeLB-1" value="nginx" style="verticalAlign=top;align=left;spacingTop=8;spacingLeft=2;spacingRight=12;shape=cube;size=10;direction=south;fontStyle=4;html=1;" vertex="1" parent="1">
          <mxGeometry x="234" y="290" width="360" height="240" as="geometry" />
        </mxCell>
        <mxCell id="5luBb_2tMEL0sUNSLeLB-2" value="统一门户" style="shape=module;align=left;spacingLeft=20;align=center;verticalAlign=top;" vertex="1" parent="1">
          <mxGeometry x="260" y="350" width="290" height="40" as="geometry" />
        </mxCell>
      </root>
    </mxGraphModel>
  </diagram>
</mxfile>
